<?xml version="1.0" encoding="UTF-8"?><svg id="Layer_2" xmlns="http://www.w3.org/2000/svg" viewBox="0 0 500.61 198.46"><defs><style>.cls-1{fill:#e00000;}</style></defs><g id="Layer_1-2"><path class="cls-1" d="M0,86.92v23.66l182.68.41.37,1.37c1.14,4.08,1.31,8.77.56,14.73l-.21,1.64h-1.65s-181.75.04-181.75.04v23.9l200.67.03.12-65.57-200.79-.2Z"/><polygon class="cls-1" points="500.61 0 241.76 0 0 0 0 23.44 500.61 23.44 500.61 0"/><path class="cls-1" d="M500.61,174.51l-190.82-.02c-22.61,0-47.42-15.93-48.47-50.9-.5-16.89,4.87-32.02,15.13-42.6,8.88-9.15,21.01-14.41,33.28-14.42l190.88-.07v-23.86l-188.91-.02c-12.54.69-22.88,3.56-33.4,9.33-9.69,5.76-17.45,14.33-24.36,26.95l-1.64,3-1.64-3c-6.89-12.6-14.64-21.17-24.39-26.96-10.5-5.75-20.83-8.62-33.47-9.31l-192.79.03v23.86l194.86.07c12.27,0,24.39,5.26,33.28,14.42,10.26,10.58,15.63,25.71,15.13,42.6-1.05,34.97-25.86,50.9-48.47,50.9l-194.8.02v23.95l194.87-.04c10.63,0,21.41-3.29,33.92-10.37,8.05-4.55,14.39-11.49,21.9-23.97l1.6-2.67,1.6,2.67c7.52,12.49,13.86,19.44,21.9,23.97,12.52,7.08,23.3,10.37,33.93,10.37l190.89.04v-23.95Z"/><path class="cls-1" d="M500.61,128.76l-175.55-.04-.21-1.64c-.76-5.97-.58-10.65.56-14.73l.37-1.37h1.42s173.4-.39,173.4-.39v-23.67l-192.94.2.12,65.57,192.82-.03v-23.9Z"/></g></svg>