<?xml version="1.0" encoding="UTF-8"?><svg id="Layer_2" xmlns="http://www.w3.org/2000/svg" viewBox="0 0 379.37 138.46"><defs><style>.cls-1{fill:#e00000;}</style></defs><g id="Layer_1-2"><path class="cls-1" d="M31.54,88.51l117.51.26.21.78c.65,2.32.75,4.98.32,8.37l-.12.93h-.94s-147.2.03-147.2.03v13.56l157.95.02.07-37.24-127.35-.13c-6.14,0-12.17-3.31-16.14-8.84-9.33-13-8.29-34.39,2.22-45.78,4.15-4.5,9.77-6.88,16.26-6.88l155.36-.02,155.36.02c6.49,0,12.11,2.38,16.26,6.88,10.51,11.39,11.54,32.78,2.22,45.78-3.97,5.53-10,8.83-16.14,8.84l-127.34.13.07,37.24,157.83-.02v-13.56l-148.03-.03-.12-.93c-.43-3.39-.33-6.05.32-8.37l.21-.78h.81s116.69-.26,116.69-.26c8.78-.02,17.48-5.21,23.28-13.88,11.75-17.57,10.86-46.2-1.96-62.53-5.95-7.58-13.91-11.94-21.81-11.95l-152.51-.15h-5.14s-5.28,0-5.28,0h-.92S32.04.15,32.04.15c-7.91,0-15.86,4.36-21.82,11.95-12.81,16.32-13.72,44.96-1.97,62.53,5.8,8.67,14.5,13.86,23.28,13.88Z"/><path class="cls-1" d="M377.94,124.85l-156.7-.02c-12.84,0-26.93-9.05-27.53-28.91-.29-9.59,2.77-18.19,8.59-24.2,5.04-5.2,11.93-8.18,18.9-8.19l122.76-.04-.04-37.76h-161.33s-149.35,0-149.35,0l-.04,37.76,122.76.04c6.97,0,13.86,2.99,18.9,8.19,5.83,6.01,8.88,14.6,8.59,24.19-.6,19.86-14.69,28.91-27.53,28.91l-154.61.02v13.61l154.65-.03c6.04,0,12.16-1.87,19.27-5.89,4.57-2.58,8.17-6.53,12.44-13.62l.91-1.52.91,1.52c4.27,7.09,7.87,11.04,12.44,13.62,7.11,4.02,13.23,5.89,19.27,5.89l156.74.03v-13.61ZM188.58,72.25l-.93-1.7c-3.91-7.15-8.32-12.02-13.85-15.31-5.96-3.27-11.83-4.9-19.01-5.29l-111.79.02-.07-.99c-.23-3.16-.23-5.83.02-8.94l.08-.98h291.12l.08.98c.24,3.11.25,5.78.02,8.94l-.07.99h-111.85c-7.13.38-13,2.01-18.97,5.28-5.5,3.27-9.91,8.14-13.83,15.31l-.93,1.7Z"/></g></svg>